<?xml version="1.0" encoding="UTF-8"?>
<!DOCTYPE svg PUBLIC "-//W3C//DTD SVG 1.1//EN" "http://www.w3.org/Graphics/SVG/1.1/DTD/svg11.dtd">
<svg xmlns="http://www.w3.org/2000/svg" version="1.1" width="500px" height="500px" style="shape-rendering:geometricPrecision; text-rendering:geometricPrecision; image-rendering:optimizeQuality; fill-rule:evenodd; clip-rule:evenodd" xmlns:xlink="http://www.w3.org/1999/xlink">
<g><path style="opacity:1" fill="#efeeeb" d="M -0.5,-0.5 C 166.167,-0.5 332.833,-0.5 499.5,-0.5C 499.5,166.167 499.5,332.833 499.5,499.5C 332.833,499.5 166.167,499.5 -0.5,499.5C -0.5,332.833 -0.5,166.167 -0.5,-0.5 Z"/></g>
<g><path style="opacity:1" fill="#22d9fe" d="M 333.5,171.5 C 349.3,172.316 362.466,178.649 373,190.5C 382.177,180.326 393.51,173.993 407,171.5C 413.863,171.43 418.863,174.43 422,180.5C 423.408,184.057 424.408,187.724 425,191.5C 425.394,200.65 424.728,209.65 423,218.5C 432.099,221.466 440.599,225.633 448.5,231C 457.774,237.713 459.941,246.213 455,256.5C 446.7,265.738 436.534,272.071 424.5,275.5C 424.167,276.167 423.833,276.833 423.5,277.5C 426.785,290.491 425.952,303.158 421,315.5C 414.55,322.597 406.717,324.43 397.5,321C 388.283,317.228 380.283,311.728 373.5,304.5C 363.839,314.497 352.172,320.497 338.5,322.5C 333.491,322.911 329.324,321.244 326,317.5C 321.206,308.401 319.539,298.735 321,288.5C 321.679,284.122 322.512,279.789 323.5,275.5C 308.718,272.696 297.218,265.03 289,252.5C 287.932,247.232 288.599,242.232 291,237.5C 293.5,235 296,232.5 298.5,230C 306.586,225.291 314.919,221.124 323.5,217.5C 319.017,204.258 319.517,191.258 325,178.5C 327.441,175.546 330.275,173.213 333.5,171.5 Z"/></g>
<g><path style="opacity:1" fill="#efeeec" d="M 334.5,179.5 C 347.723,180.278 358.723,185.612 367.5,195.5C 362.643,201.189 357.977,207.022 353.5,213C 345.77,213.842 338.103,215.009 330.5,216.5C 328.334,206.184 328.167,195.851 330,185.5C 330.804,182.854 332.304,180.854 334.5,179.5 Z"/></g>
<g><path style="opacity:1" fill="#eeeeec" d="M 401.5,179.5 C 404.85,179.335 408.183,179.502 411.5,180C 413,180.833 414.167,182 415,183.5C 417.997,194.424 418.163,205.424 415.5,216.5C 407.829,215.416 400.163,214.249 392.5,213C 388.023,207.022 383.357,201.189 378.5,195.5C 385.361,188.912 393.027,183.578 401.5,179.5 Z"/></g>
<g><path style="opacity:1" fill="#f3f3f3" d="M 11.5,197.5 C 77.8333,197.5 144.167,197.5 210.5,197.5C 210.5,232.5 210.5,267.5 210.5,302.5C 144.167,302.5 77.8333,302.5 11.5,302.5C 11.5,267.5 11.5,232.5 11.5,197.5 Z"/></g>
<g><path style="opacity:1" fill="#edeeec" d="M 372.5,201.5 C 376.332,204.499 379.665,207.999 382.5,212C 376.167,212.667 369.833,212.667 363.5,212C 366.389,208.376 369.389,204.876 372.5,201.5 Z"/></g>
<g><path style="opacity:1" fill="#a9cc66" d="M 46.5,215.5 C 49.1873,215.336 51.854,215.503 54.5,216C 53.7402,217.441 53.0736,218.941 52.5,220.5C 53.7366,221.281 54.7366,222.281 55.5,223.5C 53.4344,224.906 51.2677,226.24 49,227.5C 43.139,240.723 36.639,253.556 29.5,266C 26.8604,266.839 24.5271,266.339 22.5,264.5C 23.6005,262.358 24.6005,260.192 25.5,258C 24.09,257.632 23.09,256.799 22.5,255.5C 24.322,253.99 26.322,252.657 28.5,251.5C 27.5,250.667 26.5,249.833 25.5,249C 27.725,248.124 29.725,246.957 31.5,245.5C 30.2634,244.719 29.2634,243.719 28.5,242.5C 30.1526,240.879 32.1526,239.712 34.5,239C 33.5,238 32.5,237 31.5,236C 33.6641,235.086 35.6641,233.919 37.5,232.5C 36.2634,231.719 35.2634,230.719 34.5,229.5C 36.2199,228.066 38.2199,227.233 40.5,227C 36.3505,223.756 37.0172,221.756 42.5,221C 43.965,219.226 45.2983,217.392 46.5,215.5 Z"/></g>
<g><path style="opacity:1" fill="#eeeeec" d="M 357.5,220.5 C 367.839,220.334 378.172,220.5 388.5,221C 394.265,229.193 399.265,237.859 403.5,247C 399.522,256.629 394.522,265.629 388.5,274C 378.151,274.832 367.817,274.666 357.5,273.5C 351.483,265.298 346.483,256.465 342.5,247C 346.872,237.75 351.872,228.916 357.5,220.5 Z"/></g>
<g><path style="opacity:1" fill="#e9eeec" d="M 342.5,221.5 C 344.288,221.215 345.955,221.548 347.5,222.5C 344.248,227.334 341.248,232.334 338.5,237.5C 336.045,233.135 334.378,228.469 333.5,223.5C 336.727,223.324 339.727,222.657 342.5,221.5 Z"/></g>
<g><path style="opacity:1" fill="#edeeec" d="M 398.5,222.5 C 398.56,221.957 398.893,221.624 399.5,221.5C 403.764,222.179 407.931,223.179 412,224.5C 411.701,229.069 410.368,233.402 408,237.5C 404.809,232.436 401.642,227.436 398.5,222.5 Z"/></g>
<g><path style="opacity:1" fill="#eeeeec" d="M 322.5,226.5 C 323.822,226.33 324.989,226.663 326,227.5C 328.403,234.211 330.903,240.878 333.5,247.5C 330.725,254.052 328.225,260.719 326,267.5C 315.104,266.386 305.771,261.719 298,253.5C 295.296,250.001 294.963,246.334 297,242.5C 304.199,234.989 312.699,229.656 322.5,226.5 Z"/></g>
<g><path style="opacity:1" fill="#eeeeec" d="M 420.5,226.5 C 460.334,239.866 460.5,253.866 421,268.5C 418.558,261.175 415.725,254.008 412.5,247C 415.273,240.177 417.939,233.344 420.5,226.5 Z"/></g>
<g><path style="opacity:1" fill="#040404" d="M 232.5,230.5 C 233.552,230.351 234.552,230.517 235.5,231C 240.015,235.682 244.681,240.182 249.5,244.5C 254.319,240.182 258.985,235.682 263.5,231C 267,230.5 268.5,232 268,235.5C 263.318,240.015 258.818,244.681 254.5,249.5C 258.818,254.319 263.318,258.985 268,263.5C 268.5,267 267,268.5 263.5,268C 258.985,263.318 254.319,258.818 249.5,254.5C 244.681,258.818 240.015,263.318 235.5,268C 232,268.5 230.5,267 231,263.5C 235.682,258.985 240.182,254.319 244.5,249.5C 240.182,244.681 235.682,240.015 231,235.5C 230.387,233.505 230.887,231.838 232.5,230.5 Z"/></g>
<g><path style="opacity:1" fill="#1d78bb" d="M 50.5,230.5 C 51.3764,230.369 52.0431,230.702 52.5,231.5C 57.561,242.622 62.8944,253.622 68.5,264.5C 65.059,266.006 61.8924,265.673 59,263.5C 55.6601,256.798 52.3267,250.131 49,243.5C 48.1504,238.979 48.6504,234.645 50.5,230.5 Z"/></g>
<g><path style="opacity:1" fill="#1dd8fe" d="M 369.5,231.5 C 385.548,232.368 391.048,240.368 386,255.5C 377.333,264.833 368.667,264.833 360,255.5C 355.24,244.27 358.407,236.27 369.5,231.5 Z"/></g>
<g><path style="opacity:1" fill="#e64b52" d="M 71.5,234.5 C 72.1174,234.611 72.6174,234.944 73,235.5C 73.498,238.482 73.6646,241.482 73.5,244.5C 78.5111,244.334 83.5111,244.501 88.5,245C 97.434,250.922 97.7673,257.256 89.5,264C 80.4329,267.899 73.9329,265.399 70,256.5C 69.3333,249.833 69.3333,243.167 70,236.5C 70.7172,235.956 71.2172,235.289 71.5,234.5 Z"/></g>
<g><path style="opacity:1" fill="#4274b5" d="M 102.5,234.5 C 103.75,234.577 104.583,235.244 105,236.5C 105.333,239.5 105.667,242.5 106,245.5C 118.067,240.951 124.567,245.118 125.5,258C 125.695,260.352 125.028,262.352 123.5,264C 122.256,264.456 121.423,263.956 121,262.5C 120.881,257.718 120.215,253.051 119,248.5C 114.038,245.351 109.705,246.018 106,250.5C 105.667,254.833 105.333,259.167 105,263.5C 104,264.833 103,264.833 102,263.5C 101.218,253.786 101.385,244.12 102.5,234.5 Z"/></g>
<g><path style="opacity:1" fill="#acce73" d="M 162.5,243.5 C 177.291,242.801 182.624,249.635 178.5,264C 172.5,264.667 166.5,264.667 160.5,264C 154.975,261.081 153.142,256.581 155,250.5C 156.742,247.254 159.242,244.921 162.5,243.5 Z"/></g>
<g><path style="opacity:1" fill="#e64b52" d="M 186.5,243.5 C 191.844,243.334 197.177,243.501 202.5,244C 203.308,244.308 203.975,244.808 204.5,245.5C 200.021,251.147 195.354,256.647 190.5,262C 195.202,262.172 199.868,262.672 204.5,263.5C 204.291,264.086 203.957,264.586 203.5,265C 197.584,265.807 191.75,265.641 186,264.5C 185.685,263.092 186.018,261.759 187,260.5C 191.534,256.301 195.701,251.801 199.5,247C 195.167,246.667 190.833,246.333 186.5,246C 185.402,245.23 185.402,244.397 186.5,243.5 Z"/></g>
<g><path style="opacity:1" fill="#f1b838" d="M 130.5,244.5 C 131.496,244.414 132.329,244.748 133,245.5C 135.667,250.167 138.333,254.833 141,259.5C 143.588,255.326 145.921,250.993 148,246.5C 149.789,243.821 150.955,243.987 151.5,247C 147.492,255.518 143.325,264.018 139,272.5C 137.388,275.079 135.888,275.079 134.5,272.5C 136.278,270.055 137.611,267.389 138.5,264.5C 135.282,258.062 132.615,251.395 130.5,244.5 Z"/></g>
<g><path style="opacity:1" fill="#f4edee" d="M 78.5,246.5 C 89.5537,245.367 93.2204,249.867 89.5,260C 79.119,264.905 74.2856,261.738 75,250.5C 76.3756,249.295 77.5423,247.962 78.5,246.5 Z"/></g>
<g><path style="opacity:1" fill="#f1f3ee" d="M 163.5,246.5 C 172.711,245.542 176.545,249.542 175,258.5C 170.243,263.241 165.243,263.574 160,259.5C 157.186,253.938 158.352,249.605 163.5,246.5 Z"/></g>
<g><path style="opacity:1" fill="#eceeec" d="M 407.5,256.5 C 409.865,260.562 411.865,264.895 413.5,269.5C 408.639,271.313 403.639,272.146 398.5,272C 401.727,266.946 404.727,261.779 407.5,256.5 Z"/></g>
<g><path style="opacity:1" fill="#eaeeec" d="M 337.5,257.5 C 338.376,257.369 339.043,257.702 339.5,258.5C 342.124,263.585 345.124,268.418 348.5,273C 343.55,272.944 338.717,272.11 334,270.5C 334.432,266.027 335.599,261.693 337.5,257.5 Z"/></g>
<g><path style="opacity:1" fill="#eaa09a" d="M 75.5,277.5 C 77.5043,279.838 78.671,282.505 79,285.5C 78.1074,284.919 77.1074,284.585 76,284.5C 74.0909,285.156 72.2576,285.656 70.5,286C 72.568,283.358 74.2347,280.525 75.5,277.5 Z"/></g>
<g><path style="opacity:1" fill="#eeeeec" d="M 330.5,278.5 C 338.593,279.344 346.593,280.678 354.5,282.5C 358.478,287.646 362.645,292.646 367,297.5C 367.667,298.5 367.667,299.5 367,300.5C 335.236,326.197 323.07,318.863 330.5,278.5 Z"/></g>
<g><path style="opacity:1" fill="#eeeeec" d="M 414.5,277.5 C 415.776,279.562 416.61,281.896 417,284.5C 417.667,291.167 417.667,297.833 417,304.5C 416.587,310.713 413.421,314.38 407.5,315.5C 396.076,313.12 386.409,307.62 378.5,299C 383.544,293.624 388.211,287.958 392.5,282C 400.018,280.807 407.351,279.307 414.5,277.5 Z"/></g>
<g><path style="opacity:1" fill="#e98b82" d="M 82.5,278.5 C 83.404,279.209 83.7373,280.209 83.5,281.5C 88.8333,281.833 88.8333,282.167 83.5,282.5C 83.5,283.5 83.5,284.5 83.5,285.5C 88.5,286.003 88.1667,286.336 82.5,286.5C 82.5,283.833 82.5,281.167 82.5,278.5 Z"/></g>
<g><path style="opacity:1" fill="#edeeec" d="M 364.5,283.5 C 370.013,282.184 375.68,282.184 381.5,283.5C 379.229,287.274 376.396,290.607 373,293.5C 370.302,289.975 367.469,286.642 364.5,283.5 Z"/></g>
</svg>
